<svg width="26" height="25" viewBox="0 0 26 25" fill="none" xmlns="http://www.w3.org/2000/svg">
<path d="M13.167 25C11.4378 25 9.81283 24.6719 8.29199 24.0156C6.77116 23.3594 5.44824 22.4688 4.32324 21.3438C3.19824 20.2188 2.30762 18.8958 1.65137 17.375C0.995117 15.8542 0.666992 14.2292 0.666992 12.5C0.666992 10.7708 0.995117 9.14583 1.65137 7.625C2.30762 6.10417 3.19824 4.78125 4.32324 3.65625C5.44824 2.53125 6.77116 1.64062 8.29199 0.984375C9.81283 0.328125 11.4378 0 13.167 0C14.8962 0 16.5212 0.328125 18.042 0.984375C19.5628 1.64062 20.8857 2.53125 22.0107 3.65625C23.1357 4.78125 24.0264 6.10417 24.6826 7.625C25.3389 9.14583 25.667 10.7708 25.667 12.5C25.667 14.2292 25.3389 15.8542 24.6826 17.375C24.0264 18.8958 23.1357 20.2188 22.0107 21.3438C20.8857 22.4688 19.5628 23.3594 18.042 24.0156C16.5212 24.6719 14.8962 25 13.167 25ZM13.167 19.375C14.1045 18.4375 14.9378 17.4688 15.667 16.4688C16.292 15.6146 16.8649 14.6771 17.3857 13.6562C17.9066 12.6354 18.167 11.625 18.167 10.625C18.167 9.25 17.6774 8.07292 16.6982 7.09375C15.7191 6.11458 14.542 5.625 13.167 5.625C11.792 5.625 10.6149 6.11458 9.63574 7.09375C8.65658 8.07292 8.16699 9.25 8.16699 10.625C8.16699 11.625 8.42741 12.6354 8.94824 13.6562C9.46908 14.6771 10.042 15.6146 10.667 16.4688C11.3962 17.4688 12.2295 18.4375 13.167 19.375ZM13.167 12.5C12.6462 12.5 12.2035 12.3177 11.8389 11.9531C11.4743 11.5885 11.292 11.1458 11.292 10.625C11.292 10.1042 11.4743 9.66146 11.8389 9.29688C12.2035 8.93229 12.6462 8.75 13.167 8.75C13.6878 8.75 14.1305 8.93229 14.4951 9.29688C14.8597 9.66146 15.042 10.1042 15.042 10.625C15.042 11.1458 14.8597 11.5885 14.4951 11.9531C14.1305 12.3177 13.6878 12.5 13.167 12.5Z" fill="#645F66"/>
</svg>
