<svg width="25" height="25" viewBox="0 0 25 25" fill="none" xmlns="http://www.w3.org/2000/svg">
<path d="M22.0509 13.725C22.1023 13.325 22.1408 12.925 22.1408 12.5C22.1408 12.075 22.1023 11.675 22.0509 11.275L24.7624 9.2125C25.0065 9.025 25.0708 8.6875 24.9166 8.4125L22.3464 4.0875C22.2308 3.8875 22.0123 3.775 21.781 3.775C21.7039 3.775 21.6268 3.7875 21.5626 3.8125L18.3627 5.0625C17.6945 4.5625 16.9749 4.15 16.191 3.8375L15.7027 0.525C15.6641 0.225 15.3942 0 15.073 0H9.9327C9.61144 0 9.34157 0.225 9.30302 0.525L8.8147 3.8375C8.03081 4.15 7.31117 4.575 6.64293 5.0625L3.44312 3.8125C3.36602 3.7875 3.28891 3.775 3.21181 3.775C2.99335 3.775 2.77489 3.8875 2.65923 4.0875L0.0890957 8.4125C-0.077963 8.6875 -0.000858813 9.025 0.243304 9.2125L2.95479 11.275C2.90339 11.675 2.86484 12.0875 2.86484 12.5C2.86484 12.9125 2.90339 13.325 2.95479 13.725L0.243304 15.7875C-0.000858813 15.975 -0.0651123 16.3125 0.0890957 16.5875L2.65923 20.9125C2.77489 21.1125 2.99335 21.225 3.22466 21.225C3.30176 21.225 3.37887 21.2125 3.44312 21.1875L6.64293 19.9375C7.31117 20.4375 8.03081 20.85 8.8147 21.1625L9.30302 24.475C9.34157 24.775 9.61144 25 9.9327 25H15.073C15.3942 25 15.6641 24.775 15.7027 24.475L16.191 21.1625C16.9749 20.85 17.6945 20.425 18.3627 19.9375L21.5626 21.1875C21.6397 21.2125 21.7168 21.225 21.7939 21.225C22.0123 21.225 22.2308 21.1125 22.3464 20.9125L24.9166 16.5875C25.0708 16.3125 25.0065 15.975 24.7624 15.7875L22.0509 13.725ZM19.5065 11.5875C19.5579 11.975 19.5707 12.2375 19.5707 12.5C19.5707 12.7625 19.545 13.0375 19.5065 13.4125L19.3265 14.825L20.4703 15.7L21.8581 16.75L20.9586 18.2625L19.3265 17.625L17.9901 17.1L16.8335 17.95C16.2809 18.35 15.7541 18.65 15.2272 18.8625L13.865 19.4L13.6594 20.8125L13.4024 22.5H11.6033L11.3591 20.8125L11.1535 19.4L9.79135 18.8625C9.23877 18.6375 8.72474 18.35 8.21072 17.975L7.04131 17.1L5.67913 17.6375L4.0471 18.275L3.14755 16.7625L4.53543 15.7125L5.67913 14.8375L5.49923 13.425C5.46067 13.0375 5.43497 12.75 5.43497 12.5C5.43497 12.25 5.46067 11.9625 5.49923 11.5875L5.67913 10.175L4.53543 9.3L3.14755 8.25L4.0471 6.7375L5.67913 7.375L7.0156 7.9L8.17216 7.05C8.72474 6.65 9.25162 6.35 9.7785 6.1375L11.1407 5.6L11.3463 4.1875L11.6033 2.5H13.3895L13.6337 4.1875L13.8393 5.6L15.2015 6.1375C15.7541 6.3625 16.2681 6.65 16.7821 7.025L17.9515 7.9L19.3137 7.3625L20.9457 6.725L21.8453 8.2375L20.4703 9.3L19.3265 10.175L19.5065 11.5875ZM12.5028 7.5C9.66284 7.5 7.36257 9.7375 7.36257 12.5C7.36257 15.2625 9.66284 17.5 12.5028 17.5C15.3428 17.5 17.6431 15.2625 17.6431 12.5C17.6431 9.7375 15.3428 7.5 12.5028 7.5ZM12.5028 15C11.0893 15 9.9327 13.875 9.9327 12.5C9.9327 11.125 11.0893 10 12.5028 10C13.9164 10 15.073 11.125 15.073 12.5C15.073 13.875 13.9164 15 12.5028 15Z" fill="#645F66"/>
</svg>
