<svg width="26" height="25" viewBox="0 0 26 25" fill="none" xmlns="http://www.w3.org/2000/svg">
<path d="M20.333 0H5.33301C2.57051 0 0.333008 2.79687 0.333008 6.25V18.75C0.333008 22.2031 2.57051 25 5.33301 25H20.333C23.0955 25 25.333 22.2031 25.333 18.75V6.25C25.333 2.79687 23.0955 0 20.333 0ZM18.008 15.2656C17.708 15.5781 17.2955 15.7031 16.908 15.5781L3.02051 11.3281C3.39551 10.1875 4.28301 9.375 5.33301 9.375H20.333C21.1705 9.375 21.908 9.90625 22.3705 10.6875L18.008 15.2656ZM5.33301 3.125H20.333C21.708 3.125 22.833 4.53125 22.833 6.25V7.10938C22.0955 6.57813 21.2455 6.25 20.333 6.25H5.33301C4.42051 6.25 3.57051 6.57813 2.83301 7.10938V6.25C2.83301 4.53125 3.95801 3.125 5.33301 3.125Z" fill="#645F66"/>
<path d="M20.333 0H5.33301C2.57051 0 0.333008 2.79687 0.333008 6.25V18.75C0.333008 22.2031 2.57051 25 5.33301 25H20.333C23.0955 25 25.333 22.2031 25.333 18.75V6.25C25.333 2.79687 23.0955 0 20.333 0ZM18.008 15.2656C17.708 15.5781 17.2955 15.7031 16.908 15.5781L3.02051 11.3281C3.39551 10.1875 4.28301 9.375 5.33301 9.375H20.333C21.1705 9.375 21.908 9.90625 22.3705 10.6875L18.008 15.2656ZM5.33301 3.125H20.333C21.708 3.125 22.833 4.53125 22.833 6.25V7.10938C22.0955 6.57813 21.2455 6.25 20.333 6.25H5.33301C4.42051 6.25 3.57051 6.57813 2.83301 7.10938V6.25C2.83301 4.53125 3.95801 3.125 5.33301 3.125Z" fill="#645F66"/>
</svg>
